<svg width="31" height="30" viewBox="0 0 31 30" fill="none" xmlns="http://www.w3.org/2000/svg">
<circle cx="15.4091" cy="15" r="15" fill="white"/>
<mask id="mask0_673_53427" style="mask-type:alpha" maskUnits="userSpaceOnUse" x="5" y="5" width="21" height="20">
<rect x="5.40906" y="5" width="20" height="20" fill="#C4C4C4"/>
</mask>
<g mask="url(#mask0_673_53427)">
<path d="M15.7385 8.51018C14.6916 8.67352 13.868 9.28673 13.4322 10.2266C13.1187 10.9086 13.0549 11.3241 13.0549 12.7368V13.7368H12.1542C11.6547 13.7368 11.2216 13.7483 11.1871 13.7626C11.1499 13.7798 11.0941 13.8199 11.0648 13.8543C11.009 13.9173 11.009 13.9374 11.009 15.2383C11.009 16.4475 11.0143 16.565 11.0569 16.6195C11.1472 16.7427 11.1817 16.7456 12.1356 16.7456H13.0549V19.8403V22.935L13.132 23.0267L13.209 23.1212L14.4472 23.1298C15.5392 23.1356 15.696 23.1327 15.7677 23.0926C15.9325 23.0009 15.9245 23.1442 15.9245 19.7973V16.7456H16.9873C17.7525 16.7456 18.066 16.737 18.1165 16.7112C18.2627 16.6395 18.2627 16.6281 18.2627 15.2297V13.9374L18.1856 13.8457L18.1086 13.7511L17.0139 13.7425L15.9218 13.7339L15.9298 12.8084L15.9378 11.8857L16.0175 11.7167C16.1052 11.5333 16.2513 11.41 16.4479 11.3527C16.5037 11.3355 16.897 11.3183 17.3194 11.3126C17.7445 11.304 18.1192 11.2926 18.1511 11.284C18.1856 11.2754 18.2441 11.2353 18.2786 11.1951L18.3424 11.1206V9.88275C18.3424 8.66779 18.3424 8.64486 18.2866 8.58182C18.2573 8.54744 18.2015 8.50732 18.1643 8.49013C18.0581 8.44714 16.0361 8.46434 15.7385 8.51018Z" fill="#00730C"/>
</g>
</svg>
