<svg width="25" height="25" viewBox="0 0 25 25" fill="none" xmlns="http://www.w3.org/2000/svg">
<g id="Blog Social Icon / Hover (facebook Icon">
<mask id="mask0_673_47314" style="mask-type:alpha" maskUnits="userSpaceOnUse" x="0" y="0" width="25" height="25">
<rect id="Rectangle 55" width="25" height="25" fill="#C4C4C4"/>
</mask>
<g mask="url(#mask0_673_47314)">
<path id="Vector" d="M12.9118 4.38767C11.6033 4.59183 10.5737 5.35835 10.029 6.53319C9.63708 7.38567 9.55737 7.90504 9.55737 9.67089V10.921H8.43146C7.80707 10.921 7.2657 10.9353 7.22252 10.9532C7.17603 10.9747 7.10628 11.0248 7.06975 11.0678C7 11.1466 7 11.1717 7 12.7978C7 14.3094 7.00664 14.4562 7.05978 14.5243C7.17271 14.6783 7.21588 14.6819 8.40821 14.6819H9.55737V18.5503V22.4187L9.65368 22.5333L9.75 22.6515L11.2977 22.6622C12.6627 22.6694 12.8587 22.6658 12.9484 22.6157C13.1543 22.5011 13.1443 22.6801 13.1443 18.4965V14.6819H14.4728C15.4293 14.6819 15.8213 14.6711 15.8844 14.6389C16.067 14.5494 16.067 14.535 16.067 12.7871V11.1717L15.9707 11.0571L15.8744 10.9389L14.506 10.9281L13.141 10.9174L13.151 9.76043L13.1609 8.60708L13.2606 8.39575C13.3702 8.16651 13.5528 8.01249 13.7986 7.94086C13.8684 7.91937 14.3599 7.89788 14.888 7.89071C15.4194 7.87997 15.8877 7.86564 15.9275 7.85489C15.9707 7.84415 16.0438 7.794 16.087 7.74386L16.1667 7.65073V6.10337C16.1667 4.58467 16.1667 4.55602 16.0969 4.47722C16.0604 4.43423 15.9906 4.38409 15.9441 4.3626C15.8113 4.30887 13.2838 4.33036 12.9118 4.38767Z" fill="white"/>
</g>
</g>
</svg>
