<svg width="26" height="25" viewBox="0 0 26 25" fill="none" xmlns="http://www.w3.org/2000/svg">
<g id="Google">
<mask id="mask0_12385_5658" style="mask-type:alpha" maskUnits="userSpaceOnUse" x="0" y="0" width="26" height="25">
<rect id="Rectangle 56" x="0.166626" width="25" height="25" fill="#C4C4C4"/>
</mask>
<g mask="url(#mask0_12385_5658)">
<g id="Group 15">
<g id="Group">
<g id="Group_2">
<path id="Vector" d="M22.194 12.1171V9.42334H20.791V12.1171H17.985V13.464H20.791V16.1577H22.194V13.464H25V12.1171H22.194Z" fill="white"/>
</g>
</g>
<g id="Group_3">
<g id="Group_4">
<path id="Vector_2" d="M8.44047 11.9517V15.1184H12.9197C12.2658 16.9614 10.5051 18.2851 8.44047 18.2851C5.82164 18.2851 3.69047 16.1539 3.69047 13.5351C3.69047 10.9162 5.82164 8.78507 8.44047 8.78507C9.57572 8.78507 10.6682 9.19199 11.5169 9.93141L13.5974 7.54374C12.1724 6.30241 10.3421 5.61841 8.44047 5.61841C4.07522 5.61841 0.523804 9.16983 0.523804 13.5351C0.523804 17.9003 4.07522 21.4517 8.44047 21.4517C12.8057 21.4517 16.3571 17.9003 16.3571 13.5351V11.9517H8.44047Z" fill="white"/>
</g>
</g>
</g>
</g>
</g>
</svg>
