<svg width="31" height="31" viewBox="0 0 31 31" fill="none" xmlns="http://www.w3.org/2000/svg">
<g id="Google">
<mask id="mask0_673_47329" style="mask-type:alpha" maskUnits="userSpaceOnUse" x="0" y="0" width="31" height="31">
<rect id="Rectangle 56" x="0.199951" y="0.199951" width="30" height="30" fill="#C4C4C4"/>
</mask>
<g mask="url(#mask0_673_47329)">
<g id="Group 15">
<g id="Group">
<g id="Group_2">
<path id="Vector" d="M26.6329 14.7403V11.5078H24.9493V14.7403H21.5821V16.3566H24.9493V19.5891H26.6329V16.3566H30V14.7403H26.6329Z" fill="white"/>
</g>
</g>
<g id="Group_3">
<g id="Group_4">
<path id="Vector_2" d="M10.1286 14.5421V18.3421H15.5037C14.719 20.5537 12.6062 22.1421 10.1286 22.1421C6.98597 22.1421 4.42857 19.5847 4.42857 16.4421C4.42857 13.2995 6.98597 10.7421 10.1286 10.7421C11.4909 10.7421 12.8019 11.2304 13.8203 12.1177L16.3169 9.25254C14.6069 7.76294 12.4105 6.94214 10.1286 6.94214C4.89027 6.94214 0.628571 11.2038 0.628571 16.4421C0.628571 21.6804 4.89027 25.9421 10.1286 25.9421C15.3669 25.9421 19.6286 21.6804 19.6286 16.4421V14.5421H10.1286Z" fill="white"/>
</g>
</g>
</g>
</g>
</g>
</svg>
