<svg width="23" height="23" viewBox="0 0 23 23" fill="none" xmlns="http://www.w3.org/2000/svg">
<g id="linkedin icon">
<path id="Vector" d="M22.1381 22.5306V22.5296H22.1436V14.4611C22.1436 10.514 21.2938 7.47339 16.6793 7.47339C14.461 7.47339 12.9723 8.69072 12.3646 9.84481H12.3004V7.84189H7.92514V22.5296H12.481V15.2568C12.481 13.3419 12.844 11.4902 15.2154 11.4902C17.552 11.4902 17.5868 13.6756 17.5868 15.3796V22.5306H22.1381Z" fill="white"/>
<path id="Vector_2" d="M0.363914 7.84277H4.92525V22.5305H0.363914V7.84277Z" fill="white"/>
<path id="Vector_3" d="M2.64177 0.164795C1.18336 0.164795 -6.10352e-05 1.34821 -6.10352e-05 2.80663C-6.10352e-05 4.26505 1.18336 5.47321 2.64177 5.47321C4.10019 5.47321 5.28361 4.26505 5.28361 2.80663C5.28269 1.34821 4.09927 0.164795 2.64177 0.164795V0.164795Z" fill="white"/>
</g>
</svg>
