<svg width="15" height="15" viewBox="0 0 15 15" fill="none" xmlns="http://www.w3.org/2000/svg">
<g id="linkedin icon">
<path id="Vector" d="M14.0837 14.3316V14.3311H14.0871V9.44106C14.0871 7.04883 13.5721 5.20605 10.7754 5.20605C9.43096 5.20605 8.52874 5.94383 8.1604 6.64328H8.12152V5.42939H5.46985V14.3311H8.23096V9.92328C8.23096 8.76272 8.45096 7.6405 9.88818 7.6405C11.3043 7.6405 11.3254 8.96495 11.3254 9.99772V14.3316H14.0837Z" fill="#00730C"/>
<path id="Vector_2" d="M0.887207 5.42993H3.65165V14.3316H0.887207V5.42993Z" fill="#00730C"/>
<path id="Vector_3" d="M2.26774 0.776611C1.38385 0.776611 0.666626 1.49383 0.666626 2.37772C0.666626 3.26161 1.38385 3.99384 2.26774 3.99384C3.15163 3.99384 3.86885 3.26161 3.86885 2.37772C3.86829 1.49383 3.15107 0.776611 2.26774 0.776611V0.776611Z" fill="#00730C"/>
</g>
</svg>
