<svg width="15" height="15" viewBox="0 0 15 15" fill="none" xmlns="http://www.w3.org/2000/svg">
<g id="linkedin icon">
<path id="Vector" d="M14.0836 14.3316V14.3311H14.0869V9.44106C14.0869 7.04883 13.5719 5.20605 10.7753 5.20605C9.43084 5.20605 8.52861 5.94383 8.16028 6.64328H8.12139V5.42939H5.46973V14.3311H8.23084V9.92328C8.23084 8.76272 8.45084 7.6405 9.88806 7.6405C11.3042 7.6405 11.3253 8.96495 11.3253 9.99772V14.3316H14.0836Z" fill="white"/>
<path id="Vector_2" d="M0.886963 5.42993H3.65141V14.3316H0.886963V5.42993Z" fill="white"/>
<path id="Vector_3" d="M2.26762 0.776611C1.38373 0.776611 0.666504 1.49383 0.666504 2.37772C0.666504 3.26161 1.38373 3.99384 2.26762 3.99384C3.1515 3.99384 3.86873 3.26161 3.86873 2.37772C3.86817 1.49383 3.15095 0.776611 2.26762 0.776611V0.776611Z" fill="white"/>
</g>
</svg>
