<svg width="19" height="20" viewBox="0 0 19 20" fill="none" xmlns="http://www.w3.org/2000/svg">
<g id="linkedin icon">
<path id="Vector" d="M18.7817 19.1087V19.1079H18.7863V12.3842C18.7863 9.09486 18.0782 6.56104 14.2328 6.56104C12.3841 6.56104 11.1436 7.57548 10.6371 8.53722H10.5837V6.86812H6.93762V19.1079H10.7341V13.0472C10.7341 11.4515 11.0366 9.9084 13.0128 9.9084C14.96 9.9084 14.989 11.7295 14.989 13.1496V19.1087H18.7817Z" fill="white"/>
<path id="Vector_2" d="M0.636597 6.86914H4.43771V19.1089H0.636597V6.86914Z" fill="white"/>
<path id="Vector_3" d="M2.53481 0.470703C1.31946 0.470703 0.333282 1.45688 0.333282 2.67223C0.333282 3.88758 1.31946 4.89439 2.53481 4.89439C3.75016 4.89439 4.73634 3.88758 4.73634 2.67223C4.73557 1.45688 3.74939 0.470703 2.53481 0.470703V0.470703Z" fill="white"/>
</g>
</svg>
