<svg width="25" height="25" viewBox="0 0 25 25" fill="none" xmlns="http://www.w3.org/2000/svg">
<g id="Blog Social Icon / pinterest">
<path id="Vector" fill-rule="evenodd" clip-rule="evenodd" d="M20.4382 8.99419C20.4382 13.6149 17.8693 17.0676 14.0824 17.0676C12.8101 17.0676 11.6146 16.3797 11.2048 15.5989C11.2048 15.5989 10.5207 18.313 10.3765 18.837C9.86641 20.6879 8.36587 22.5396 8.2499 22.6918C8.16821 22.7973 7.98916 22.7641 7.96987 22.6245C7.93735 22.3886 7.55508 20.053 8.00537 18.1477C8.23115 17.1909 9.52026 11.7289 9.52026 11.7289C9.52026 11.7289 9.14477 10.9768 9.14477 9.86538C9.14477 8.11909 10.1563 6.81626 11.4162 6.81626C12.4876 6.81626 13.0047 7.62017 13.0047 8.58433C13.0047 9.66201 12.3193 11.2724 11.9651 12.7642C11.6694 14.0141 12.5918 15.0337 13.8241 15.0337C16.0557 15.0337 17.5587 12.1667 17.5587 8.77017C17.5587 6.18882 15.8205 4.25605 12.6573 4.25605C9.08491 4.25605 6.85781 6.92095 6.85781 9.89775C6.85781 10.9243 7.16089 11.6484 7.63545 12.2078C7.85254 12.4653 7.88374 12.5689 7.80449 12.8645C7.74707 13.0816 7.6186 13.603 7.56377 13.81C7.48579 14.1088 7.24375 14.2148 6.97441 14.1049C5.32915 13.4333 4.56201 11.6303 4.56201 9.60459C4.56216 6.25879 7.38423 2.24609 12.9811 2.24609C17.4789 2.24609 20.4382 5.49976 20.4382 8.99419Z" fill="white"/>
</g>
</svg>
