<svg width="30" height="30" viewBox="0 0 30 30" fill="none" xmlns="http://www.w3.org/2000/svg">
<g opacity="0.1">
<path d="M6.17944 12.5011C6.54546 10.2162 9.42134 7.77558 11.6697 7.72365C11.8266 7.72365 11.9835 7.67172 12.0881 7.56787C12.1926 7.51594 12.2972 7.46401 12.3495 7.30822C13.1338 5.85423 12.7155 4.71181 11.4083 3.7771C9.89194 2.68661 7.48666 3.7771 6.28402 4.76374C3.25128 7.2563 0.166251 11.5663 0.323117 15.6687C-0.19977 18.421 -0.0951924 21.3808 0.689137 23.8214C1.21202 25.3793 2.72839 26.1582 4.29705 26.2621C5.86571 26.366 9.10761 26.8333 10.5194 25.8986C11.9312 24.9638 12.0358 23.1464 12.1926 21.5886C12.3495 19.875 12.8201 16.6553 11.356 15.3052C9.89194 14.007 5.70884 15.409 6.17944 12.5011Z" fill="#00730C"/>
<path d="M23.1963 12.5011C23.5623 10.2162 26.4381 7.77558 28.6866 7.72365C28.8435 7.72365 29.0003 7.67172 29.1049 7.56787C29.2096 7.51594 29.3141 7.46401 29.3664 7.30822C30.1508 5.85423 29.7325 4.71181 28.4252 3.7771C26.9089 2.68661 24.5036 3.7771 23.3009 4.76374C20.2681 7.2563 17.1831 11.5663 17.34 15.6687C16.8171 18.421 16.9217 21.3808 17.7059 23.8214C18.2288 25.3793 19.7452 26.1582 21.3139 26.2621C22.8826 26.366 26.1245 26.8333 27.5363 25.8986C28.948 24.9638 29.0526 23.1464 29.2095 21.5886C29.3664 19.875 29.837 16.6553 28.3729 15.3052C26.9088 14.007 22.6734 15.409 23.1963 12.5011Z" fill="#00730C"/>
</g>
</svg>
