<svg width="70" height="70" viewBox="0 0 70 70" fill="none" xmlns="http://www.w3.org/2000/svg">
<g id="quotation-marks Icon" opacity="0.1">
<g id="Group">
<path id="Vector" d="M14.4187 29.3713C15.2727 24.003 21.9831 18.2687 27.2294 18.1467C27.5954 18.1467 27.9615 18.0247 28.2055 17.7806C28.4495 17.6586 28.6935 17.5366 28.8155 17.1706C30.6456 13.7544 29.6695 11.0703 26.6194 8.87414C23.0812 6.312 17.4689 8.87414 14.6627 11.1923C7.58632 17.0486 0.387919 27.175 0.753939 36.8137C-0.466129 43.2803 -0.222115 50.2344 1.60799 55.9688C2.82805 59.629 6.36625 61.4591 10.0265 61.7031C13.6867 61.9473 21.2511 63.0452 24.5453 60.8492C27.8394 58.6529 28.0835 54.3827 28.4495 50.7227C28.8155 46.6964 29.9136 39.1318 26.4974 35.9597C23.0812 32.9095 13.3206 36.2037 14.4187 29.3713Z" fill="#F6702A"/>
<path id="Vector_2" d="M54.1243 29.3713C54.9783 24.003 61.6885 18.2687 66.935 18.1467C67.301 18.1467 67.667 18.0247 67.9111 17.7806C68.1553 17.6586 68.3991 17.5366 68.5213 17.1706C70.3514 13.7544 69.3753 11.0703 66.3252 8.87414C62.787 6.312 57.1747 8.87414 54.3683 11.1923C47.2919 17.0486 40.0935 27.1752 40.4595 36.8137C39.2395 43.2803 39.4835 50.2344 41.3134 55.9688C42.5334 59.629 46.0716 61.4591 49.732 61.7031C53.3922 61.9473 60.9567 63.0452 64.2508 60.8492C67.5448 58.6529 67.789 54.3827 68.1551 50.7227C68.5211 46.6964 69.6191 39.1318 66.203 35.9597C62.7868 32.9095 52.9042 36.2037 54.1243 29.3713Z" fill="#F6702A"/>
</g>
</g>
</svg>
