<svg width="17" height="17" viewBox="0 0 17 17" fill="none" xmlns="http://www.w3.org/2000/svg">
<g id="twitter ">
<mask id="mask0_673_53436" style="mask-type:alpha" maskUnits="userSpaceOnUse" x="0" y="0" width="17" height="17">
<rect id="Rectangle 56" x="0.843262" y="0.176514" width="16" height="16" fill="#C4C4C4"/>
</mask>
<g mask="url(#mask0_673_53436)">
<g id="Group">
<g id="Group_2">
<path id="Vector" d="M16.8433 3.21551C16.2483 3.47651 15.6143 3.64951 14.9533 3.73351C15.6333 3.32751 16.1523 2.68951 16.3963 1.92051C15.7623 2.29851 15.0623 2.56551 14.3163 2.71451C13.7143 2.07351 12.8563 1.67651 11.9203 1.67651C10.1043 1.67651 8.64226 3.15051 8.64226 4.95751C8.64226 5.21751 8.66426 5.46751 8.71826 5.70551C5.99126 5.57251 3.57826 4.26551 1.95726 2.27451C1.67426 2.76551 1.50826 3.32751 1.50826 3.93251C1.50826 5.06851 2.09326 6.07551 2.96526 6.65851C2.43826 6.64851 1.92126 6.49551 1.48326 6.25451C1.48326 6.26451 1.48326 6.27751 1.48326 6.29051C1.48326 7.88451 2.62026 9.20851 4.11126 9.51351C3.84426 9.58651 3.55326 9.62151 3.25126 9.62151C3.04126 9.62151 2.82926 9.60951 2.63026 9.56551C3.05526 10.8645 4.26126 11.8195 5.69526 11.8505C4.57926 12.7235 3.16226 13.2495 1.62826 13.2495C1.35926 13.2495 1.10126 13.2375 0.843262 13.2045C2.29626 14.1415 4.01826 14.6765 5.87526 14.6765C11.9113 14.6765 15.2113 9.67651 15.2113 5.34251C15.2113 5.19751 15.2063 5.05751 15.1993 4.91851C15.8503 4.45651 16.3973 3.87951 16.8433 3.21551Z" fill="white"/>
</g>
</g>
</g>
</g>
</svg>
