<svg width="21" height="21" viewBox="0 0 21 21" fill="none" xmlns="http://www.w3.org/2000/svg">
<g id="twitter ">
<mask id="mask0_12385_781" style="mask-type:alpha" maskUnits="userSpaceOnUse" x="0" y="0" width="21" height="21">
<rect id="Rectangle 56" x="0.303955" y="0.970703" width="20" height="20" fill="#C4C4C4"/>
</mask>
<g mask="url(#mask0_12385_781)">
<g id="Group">
<g id="Group_2">
<path id="Vector" d="M20.304 4.76945C19.5602 5.0957 18.7677 5.31195 17.9415 5.41695C18.7915 4.90945 19.4402 4.11195 19.7452 3.1507C18.9527 3.6232 18.0777 3.95695 17.1452 4.1432C16.3927 3.34195 15.3202 2.8457 14.1502 2.8457C11.8802 2.8457 10.0527 4.6882 10.0527 6.94695C10.0527 7.27195 10.0802 7.58445 10.1477 7.88195C6.73896 7.7157 3.72271 6.08195 1.69646 3.5932C1.34271 4.20695 1.13521 4.90945 1.13521 5.6657C1.13521 7.0857 1.86646 8.34445 2.95645 9.0732C2.29771 9.0607 1.65146 8.86945 1.10396 8.5682C1.10396 8.5807 1.10396 8.59695 1.10396 8.6132C1.10396 10.6057 2.5252 12.2607 4.38896 12.642C4.0552 12.7332 3.69146 12.777 3.31396 12.777C3.05146 12.777 2.78645 12.762 2.5377 12.707C3.06895 14.3307 4.57646 15.5245 6.36896 15.5632C4.97396 16.6545 3.20271 17.312 1.28521 17.312C0.948955 17.312 0.626455 17.297 0.303955 17.2557C2.12021 18.427 4.27271 19.0957 6.59396 19.0957C14.139 19.0957 18.264 12.8457 18.264 7.4282C18.264 7.24695 18.2577 7.07195 18.249 6.8982C19.0627 6.3207 19.7465 5.59945 20.304 4.76945Z" fill="white"/>
</g>
</g>
</g>
</g>
</svg>
